<svg width="30" height="35" viewBox="0 0 30 35" fill="none" xmlns="http://www.w3.org/2000/svg">
<rect width="30" height="35" rx="6" fill="#2F80ED"/>
<path d="M7.5764 14.3155L8.8003 16.5339L8.80031 16.5339C9.06094 17.0063 9.19125 17.2425 9.19125 17.5C9.19125 17.7576 9.06093 17.9938 8.8003 18.4662L7.5764 20.6845C6.37409 22.8637 5.77293 23.9533 6.26274 24.4832C6.75254 25.0132 7.88603 24.4996 10.153 23.4724L19.313 19.3217C21.0447 18.5371 21.9105 18.1448 21.9105 17.5C21.9105 16.8553 21.0447 16.463 19.313 15.6783L10.153 11.5277C7.88603 10.5005 6.75254 9.98684 6.26274 10.5168C5.77293 11.0468 6.37409 12.1364 7.5764 14.3155Z" stroke="white" stroke-width="2"/>
</svg>
