<svg width="30" height="35" viewBox="0 0 30 35" fill="none" xmlns="http://www.w3.org/2000/svg">
<rect width="30" height="35" rx="6" fill="#2F80ED"/>
<path d="M26.1484 17.7188H18.4456C18.11 17.7188 17.8375 17.4248 17.8375 17.0625C17.8375 16.7002 18.11 16.4062 18.4456 16.4062H26.1484C26.4841 16.4062 26.7565 16.7002 26.7565 17.0625C26.7565 17.4248 26.4841 17.7188 26.1484 17.7188Z" fill="white"/>
<path d="M23.1078 21C22.9521 21 22.7965 20.9361 22.678 20.8076C22.4405 20.5511 22.4405 20.1355 22.678 19.8792L25.2889 17.0617L22.678 14.2442C22.4405 13.9878 22.4405 13.5722 22.678 13.3159C22.9157 13.0593 23.3008 13.0593 23.5384 13.3159L26.5789 16.5971C26.8165 16.8535 26.8165 17.2691 26.5789 17.5254L23.5384 20.8067C23.4192 20.9361 23.2636 21 23.1078 21Z" fill="white"/>
<path d="M13.7838 28.875C13.6103 28.875 13.4456 28.8487 13.2811 28.7936L8.40158 27.0392C7.73765 26.789 7.2973 26.1213 7.2973 25.3751V9.62505C7.2973 8.6599 8.02463 7.875 8.91897 7.875C9.09238 7.875 9.25703 7.90128 9.42167 7.95639L14.3011 9.71077C14.9652 9.96103 15.4054 10.6287 15.4054 11.3749V27.1249C15.4054 28.0901 14.6782 28.875 13.7838 28.875ZM8.91897 9.1875C8.69598 9.1875 8.51352 9.38441 8.51352 9.62505V25.3751C8.51352 25.5614 8.62947 25.7346 8.79486 25.7967L13.6516 27.5433C13.6864 27.5555 13.7319 27.5625 13.7838 27.5625C14.0068 27.5625 14.1891 27.3656 14.1891 27.1249V11.3749C14.1891 11.1886 14.0732 11.0154 13.9078 10.9533L9.05111 9.20673C9.01622 9.19455 8.97079 9.1875 8.91897 9.1875Z" fill="white"/>
<path d="M19.6619 14.8751C19.3262 14.8751 19.0538 14.5811 19.0538 14.2188V10.2813C19.0538 9.67841 18.599 9.1875 18.0403 9.1875H8.91872C8.58304 9.1875 8.31061 8.8935 8.31061 8.53125C8.31061 8.169 8.58304 7.875 8.91872 7.875H18.0403C19.2704 7.875 20.27 8.9539 20.27 10.2813V14.2188C20.27 14.5811 19.9975 14.8751 19.6619 14.8751Z" fill="white"/>
<path d="M18.0404 26.25H14.797C14.4613 26.25 14.1889 25.956 14.1889 25.5937C14.1889 25.2315 14.4613 24.9375 14.797 24.9375H18.0404C18.599 24.9375 19.0538 24.4466 19.0538 23.8437V19.9062C19.0538 19.5439 19.3262 19.2499 19.6619 19.2499C19.9976 19.2499 20.27 19.5439 20.27 19.9062V23.8437C20.27 25.1711 19.2704 26.25 18.0404 26.25Z" fill="white"/>
</svg>
