<svg width="677" height="396" viewBox="0 0 677 396" fill="none" xmlns="http://www.w3.org/2000/svg">
<path d="M638.057 0.0358425L35.7312 25.9802C13.8235 26.9215 -2.55484 46.4553 0.330042 68.1992L37.9358 351.571C40.3552 369.81 55.7003 383.568 74.0889 383.987L599.05 395.99C618.216 396.43 634.594 382.273 636.952 363.246L676.712 41.9223C679.545 19.0119 661.121 -0.96182 638.057 0.0358425Z" fill="#ECF1FE"/>
<path d="M575.456 315.718C559.09 333.682 558.005 355.087 558.005 355.087C572.692 345.208 580.472 331.88 584.555 321.375C586.744 315.748 579.523 311.255 575.456 315.718Z" fill="#12AE67"/>
<path d="M539.609 328.345C544.419 343.158 552.117 354.69 552.117 354.69C554.252 341.779 552.699 331.936 549.852 324.636C547.299 318.092 537.44 321.666 539.609 328.345Z" fill="#12AE67"/>
<path d="M551.773 302.982C548.781 313.758 547.375 330.967 555.542 354.69C555.542 354.69 569.31 333.979 562.343 303.27C561.087 297.738 553.29 297.517 551.773 302.982Z" fill="#14C664"/>
<path d="M533.846 325.138C529.207 321.494 522.915 326.788 525.676 331.999C529.356 338.942 536.481 347.595 550.272 355.087C550.275 355.087 547.699 336.016 533.846 325.138Z" fill="#14C664"/>
<path d="M534.977 354.217L537.952 385.036C538.538 391.093 543.626 395.712 549.71 395.712H557.8C563.748 395.712 568.771 391.288 569.518 385.386L573.476 354.217C550.586 356.304 534.977 354.217 534.977 354.217Z" fill="white"/>
<path d="M555.542 354.69C555.542 354.69 556.858 309.942 556.868 302.966" stroke="#32449E" stroke-width="2" stroke-miterlimit="10" stroke-linecap="round" stroke-linejoin="round"/>
<path d="M558.005 355.087C558.005 355.087 573.218 330.237 580.012 319.081" stroke="#32449E" stroke-width="2" stroke-miterlimit="10" stroke-linecap="round" stroke-linejoin="round"/>
<path d="M552.117 354.69C552.117 354.69 549.167 337.368 544.416 324.728" stroke="#32449E" stroke-width="2" stroke-miterlimit="10" stroke-linecap="round" stroke-linejoin="round"/>
<path d="M550.275 355.087C550.275 355.087 537.417 335.229 530.989 328.828" stroke="#32449E" stroke-width="2" stroke-miterlimit="10" stroke-linecap="round" stroke-linejoin="round"/>
</svg>
