<svg width="677" height="416" viewBox="0 0 677 416" fill="none" xmlns="http://www.w3.org/2000/svg">
<path d="M638.057 0.0358425L35.7312 25.9802C13.8235 26.9215 -2.55484 46.4553 0.330042 68.1992L37.9358 351.571C40.3552 369.81 55.7003 383.568 74.0889 383.987L599.05 395.99C618.216 396.43 634.594 382.273 636.952 363.246L676.712 41.9223C679.545 19.0119 661.121 -0.96182 638.057 0.0358425Z" fill="#ECF1FE"/>
<path d="M489.714 248.741C489.619 247.371 488.5 246.299 487.128 246.263L427.937 244.751C425.982 244.702 424.425 246.372 424.61 248.316L430.643 311.489C430.844 313.594 432.807 315.072 434.885 314.685L491.179 304.205C492.507 303.958 493.439 302.754 493.346 301.406L489.714 248.741Z" fill="#A3BCF8"/>
<path d="M493.019 248.048C492.922 246.66 491.787 245.57 490.395 245.535L430.355 244.001C428.373 243.95 426.794 245.644 426.981 247.618L433.101 311.696C433.304 313.83 435.296 315.331 437.404 314.938L494.505 304.306C495.853 304.055 496.797 302.833 496.704 301.467L493.019 248.048Z" fill="white"/>
<path d="M430.355 244.001L490.395 245.535C491.787 245.57 492.922 246.658 493.018 248.048L494.833 274.364" stroke="#ECF1FE" stroke-width="1.55624" stroke-miterlimit="10" stroke-linecap="round" stroke-linejoin="round"/>
<path d="M448.078 250.887H436.131C435.764 250.887 435.478 251.202 435.513 251.568L435.801 254.548C435.833 254.874 436.111 255.119 436.439 255.109L448.338 254.736C448.696 254.724 448.97 254.414 448.937 254.059L448.694 251.451C448.666 251.129 448.398 250.887 448.078 250.887Z" fill="#A1E9FB"/>
<path d="M436.253 259.199L459.43 257.865" stroke="#A3BCF8" stroke-width="1.55624" stroke-miterlimit="10" stroke-linecap="round" stroke-linejoin="round"/>
<path d="M436.549 262.247L449.469 261.355" stroke="#A3BCF8" stroke-width="1.55624" stroke-miterlimit="10" stroke-linecap="round" stroke-linejoin="round"/>
<path d="M475.716 276.965C475.359 277.254 475.094 277.643 474.956 278.081L471.784 288.192C471.407 289.394 470.14 290.079 468.927 289.733L463.566 288.209C462.498 287.905 461.365 288.399 460.86 289.386L455.721 299.416C455.182 300.47 453.937 300.95 452.829 300.531L447.718 298.605C446.887 298.291 445.952 298.478 445.304 299.086L441.388 302.766C440.863 303.259 440.596 303.968 440.665 304.687L440.904 307.146L490.142 299.363L487.604 267.383L475.716 276.965Z" fill="#ECF1FE"/>
<path d="M440.555 303.55L437.292 269.914" stroke="#ECF1FE" stroke-width="1.55624" stroke-miterlimit="10" stroke-linecap="round" stroke-linejoin="round"/>
<path d="M440.308 301.007L445.158 286.249C445.547 285.065 446.799 284.398 447.999 284.735L451.872 285.825C452.622 286.036 453.428 285.858 454.018 285.349L460.299 279.952C460.645 279.656 461.069 279.467 461.521 279.409L466.914 278.722C467.917 278.594 468.722 277.834 468.908 276.839L470.142 270.214C470.337 269.164 471.221 268.382 472.287 268.317L487.606 267.378" stroke="#ED6B8A" stroke-width="3.11248" stroke-miterlimit="10" stroke-linecap="round" stroke-linejoin="round"/>
<path d="M440.022 298.068L445.454 293.843C446.163 293.293 447.124 293.198 447.926 293.601L450.978 295.13C452.154 295.721 453.583 295.219 454.134 294.025L460.64 279.907C460.745 279.678 461.01 279.569 461.246 279.656L467.22 281.875C468.345 282.293 469.603 281.786 470.124 280.706L474.567 271.515C474.711 271.217 474.919 270.953 475.173 270.741L486.97 260.911" stroke="#A36BEB" stroke-width="3.11248" stroke-miterlimit="10" stroke-linecap="round" stroke-linejoin="round"/>
<path d="M463.378 271.953L456.418 272.453C456.076 272.476 455.82 272.777 455.847 273.118L456.142 276.758C456.169 277.106 456.479 277.36 456.825 277.323L459.521 277.023C459.721 277.001 459.918 277.076 460.05 277.226L460.619 277.868C460.688 277.945 460.814 277.925 460.856 277.83L461.154 277.151C461.243 276.95 461.432 276.809 461.651 276.786L463.738 276.555C464.036 276.521 464.255 276.259 464.233 275.959L463.975 272.467C463.953 272.161 463.686 271.932 463.378 271.953Z" fill="#F2A4D2"/>
<path d="M656.962 260.297L655.246 258.796L654.733 259.766H596.424C595.09 259.766 593.806 260.847 593.562 262.184L585.581 305.445C585.571 305.498 585.565 305.551 585.559 305.605L584.453 305.857L586.218 307.401H586.22C586.566 307.689 587.022 307.863 587.551 307.863H646.675C648.009 307.863 649.292 306.781 649.537 305.445L657.518 262.184C657.66 261.42 657.431 260.741 656.962 260.297Z" fill="#A3BCF8"/>
<path d="M653.892 258.319H594.768C593.433 258.319 592.15 259.401 591.905 260.737L583.924 303.998C583.678 305.332 584.56 306.416 585.896 306.416H645.021C646.355 306.416 647.638 305.334 647.883 303.998L655.864 260.737C656.109 259.402 655.226 258.319 653.892 258.319Z" fill="white"/>
<path d="M599.586 273.896H597.46C597.016 273.896 596.635 274.214 596.554 274.65L591.943 299.649C591.838 300.216 592.273 300.737 592.849 300.737H594.975C595.419 300.737 595.8 300.419 595.881 299.983L600.492 274.983C600.595 274.419 600.161 273.896 599.586 273.896Z" fill="#BCE2F0"/>
<path d="M607.962 277.844H605.836C605.392 277.844 605.011 278.162 604.93 278.598L601.047 299.649C600.943 300.216 601.377 300.737 601.953 300.737H604.079C604.523 300.737 604.904 300.419 604.985 299.983L608.868 278.932C608.973 278.367 608.539 277.844 607.962 277.844Z" fill="#BCE2F0"/>
<path d="M598.52 263.998H602.518" stroke="#A3BCF8" stroke-width="1.55624" stroke-miterlimit="10" stroke-linecap="round" stroke-linejoin="round"/>
<path d="M607.627 263.998H611.624" stroke="#A3BCF8" stroke-width="1.55624" stroke-miterlimit="10" stroke-linecap="round" stroke-linejoin="round"/>
<path d="M598.274 281.018H596.148C595.703 281.018 595.323 281.336 595.242 281.772L591.943 299.651C591.838 300.218 592.273 300.739 592.849 300.739H594.975C595.419 300.739 595.8 300.421 595.881 299.985L599.18 282.106C599.282 281.539 598.848 281.018 598.274 281.018Z" fill="#A1E9FB"/>
<path d="M606.65 284.966H604.523C604.079 284.966 603.698 285.284 603.617 285.72L601.047 299.651C600.943 300.218 601.377 300.739 601.953 300.739H604.079C604.523 300.739 604.904 300.421 604.985 299.985L607.556 286.054C607.66 285.487 607.224 284.966 606.65 284.966Z" fill="#A1E9FB"/>
<path d="M644.383 277.844H642.257C641.813 277.844 641.432 278.162 641.351 278.598L637.468 299.649C637.363 300.216 637.798 300.737 638.374 300.737H640.5C640.944 300.737 641.325 300.419 641.406 299.983L645.289 278.932C645.394 278.367 644.959 277.844 644.383 277.844Z" fill="#BCE2F0"/>
<path d="M643.07 284.966H640.944C640.5 284.966 640.119 285.284 640.038 285.72L637.468 299.651C637.363 300.218 637.798 300.739 638.374 300.739H640.5C640.944 300.739 641.325 300.421 641.406 299.985L643.976 286.054C644.081 285.487 643.645 284.966 643.07 284.966Z" fill="#F2A4D2"/>
<path d="M618.889 267.974H616.763C616.318 267.974 615.937 268.292 615.856 268.728L610.151 299.649C610.047 300.216 610.481 300.737 611.058 300.737H613.184C613.628 300.737 614.009 300.419 614.09 299.983L619.795 269.061C619.899 268.497 619.465 267.974 618.889 267.974Z" fill="#BCE2F0"/>
<path d="M617.576 275.096H615.45C615.005 275.096 614.624 275.414 614.544 275.85L610.153 299.651C610.049 300.218 610.483 300.739 611.059 300.739H613.185C613.63 300.739 614.011 300.421 614.091 299.985L618.482 276.184C618.584 275.617 618.15 275.096 617.576 275.096Z" fill="#A36BEB"/>
<path d="M627.629 269.948H625.503C625.059 269.948 624.678 270.266 624.597 270.702L619.258 299.649C619.153 300.216 619.587 300.737 620.164 300.737H622.29C622.734 300.737 623.115 300.419 623.196 299.983L628.535 271.035C628.64 270.471 628.206 269.948 627.629 269.948Z" fill="#BCE2F0"/>
<path d="M626.317 277.07H624.191C623.747 277.07 623.366 277.388 623.285 277.824L619.258 299.651C619.153 300.218 619.587 300.739 620.164 300.739H622.29C622.734 300.739 623.115 300.421 623.196 299.985L627.223 278.158C627.325 277.591 626.891 277.07 626.317 277.07Z" fill="#A36BEB"/>
<path d="M637.464 266H635.338C634.894 266 634.513 266.318 634.432 266.754L628.364 299.649C628.259 300.216 628.693 300.737 629.27 300.737H631.396C631.84 300.737 632.221 300.419 632.302 299.983L638.37 267.087C638.473 266.523 638.038 266 637.464 266Z" fill="#BCE2F0"/>
<path d="M634.602 281.512H632.476C632.032 281.512 631.651 281.829 631.57 282.266L628.362 299.651C628.257 300.218 628.691 300.739 629.268 300.739H631.394C631.838 300.739 632.219 300.421 632.3 299.985L635.508 282.599C635.612 282.033 635.178 281.512 634.602 281.512Z" fill="#A36BEB"/>
<path d="M569.518 256.26C569.518 256.593 570.868 256.862 572.532 256.862C574.196 256.862 575.547 256.591 575.547 256.26V255.073H569.518V256.26Z" fill="#E9B371"/>
<path d="M572.532 255.676C574.197 255.676 575.547 255.406 575.547 255.073C575.547 254.741 574.197 254.471 572.532 254.471C570.868 254.471 569.518 254.741 569.518 255.073C569.518 255.406 570.868 255.676 572.532 255.676Z" fill="#F7CB71"/>
<path d="M560.201 265.54C559.966 265.777 560.736 266.918 561.92 268.088C563.104 269.259 564.253 270.015 564.486 269.778L565.321 268.935L561.036 264.697L560.201 265.54Z" fill="#E9B371"/>
<path d="M565.321 268.929C565.555 268.693 564.785 267.552 563.601 266.382C562.417 265.211 561.268 264.454 561.034 264.69C560.8 264.927 561.571 266.068 562.754 267.238C563.938 268.409 565.087 269.166 565.321 268.929Z" fill="#F7CB71"/>
<path d="M642.279 362.007L636.469 363.611L636.785 364.754C636.874 365.076 638.246 364.976 639.851 364.533C641.456 364.091 642.683 363.471 642.595 363.15L642.279 362.007Z" fill="#E9B371"/>
<path d="M639.213 362.228C637.608 362.67 636.38 363.29 636.469 363.611C636.558 363.933 637.93 363.833 639.535 363.39C641.14 362.948 642.368 362.328 642.279 362.007C642.19 361.685 640.818 361.785 639.213 362.228Z" fill="#F7CB71"/>
<path d="M428.663 336.109L424.425 340.395L425.268 341.23C425.505 341.465 426.646 340.695 427.816 339.511C428.987 338.326 429.743 337.177 429.506 336.944L428.663 336.109Z" fill="#E9B371"/>
<path d="M426.976 338.67C428.146 337.486 428.903 336.337 428.667 336.103C428.43 335.869 427.29 336.64 426.119 337.823C424.949 339.007 424.192 340.156 424.428 340.39C424.665 340.624 425.805 339.854 426.976 338.67Z" fill="#F7CB71"/>
<path d="M638.236 339.844H508.732C508.38 339.844 508.098 340.128 508.098 340.478V342.065C508.098 342.416 508.382 342.699 508.732 342.699H638.236C638.587 342.699 638.87 342.414 638.87 342.065V340.478C638.87 340.126 638.585 339.844 638.236 339.844Z" fill="#BCE2F0"/>
<path d="M552.281 339.844H508.732C508.38 339.844 508.098 340.128 508.098 340.478V342.065C508.098 342.416 508.382 342.699 508.732 342.699H552.281C552.632 342.699 552.914 342.414 552.914 342.065V340.478C552.916 340.126 552.632 339.844 552.281 339.844Z" fill="white"/>
<path d="M514.804 342.699H512.709V347.711H514.804V342.699Z" fill="#BCE2F0"/>
<path d="M514.804 347.711H512.709V415.603H514.804V347.711Z" fill="white"/>
<path d="M548.305 342.699H546.211V347.711H548.305V342.699Z" fill="#BCE2F0"/>
<path d="M548.305 347.711H546.211V415.603H548.305V347.711Z" fill="white"/>
<path d="M600.759 342.699H598.665V347.711H600.759V342.699Z" fill="#A3BCF8"/>
<path d="M600.759 347.711H598.665V415.603H600.759V347.711Z" fill="#BCE2F0"/>
<path d="M634.26 347.711H632.166V415.603H634.26V347.711Z" fill="#BCE2F0"/>
<path d="M634.26 342.699H632.166V347.711H634.26V342.699Z" fill="#A3BCF8"/>
<path d="M626.096 312.32H608.499V339.844H626.096V312.32Z" fill="white"/>
<path d="M629.408 312.32H626.096V339.844H630.326V313.236C630.326 312.731 629.915 312.32 629.408 312.32Z" fill="#A3BCF8"/>
<path d="M623.304 325.039H611.291V336.686H623.304V325.039Z" stroke="#ECF1FE" stroke-width="1.55624" stroke-miterlimit="10" stroke-linecap="round" stroke-linejoin="round"/>
<path d="M623.304 314.887H621.528" stroke="#A3BCF8" stroke-width="1.55624" stroke-miterlimit="10" stroke-linecap="round" stroke-linejoin="round"/>
<path d="M628.802 314.294H627.618V317.889H628.802V314.294Z" fill="white"/>
<path d="M633.638 318.84H630.326V339.842H634.556V319.758C634.556 319.251 634.146 318.84 633.638 318.84Z" fill="#A36BEB"/>
<path d="M633.032 320.815H631.848V324.409H633.032V320.815Z" fill="#BCE2F0"/>
<path d="M627.977 280.199H573.521C572.761 280.199 572.088 280.69 571.857 281.413L559.717 319.255C559.47 320.023 560.043 320.807 560.848 320.807H615.304C616.064 320.807 616.737 320.315 616.968 319.593L629.108 281.75C629.355 280.985 628.782 280.199 627.977 280.199Z" fill="#A3BCF8"/>
<path d="M599.788 307.136C599.744 306.755 599.421 306.469 599.038 306.469H591.54C591.12 306.469 590.78 306.815 590.786 307.235L591.163 333.535C591.179 334.575 590.826 335.535 590.228 336.291H602.986C603.063 335.876 603.08 335.442 603.029 335L599.788 307.136Z" fill="#A3BCF8"/>
<path d="M586.82 337.939H572.564C572.039 337.939 571.612 338.366 571.612 338.891C571.612 339.416 572.039 339.842 572.564 339.842H598.714C600.866 339.842 602.617 338.289 602.984 336.289H590.226C589.432 337.294 588.202 337.939 586.82 337.939Z" fill="#85A4D8"/>
<path d="M590.8 307.081L586.396 320.809H590.982L590.786 307.235C590.786 307.182 590.79 307.131 590.8 307.081Z" fill="#85A4D8"/>
<path d="M573.523 280.201C572.763 280.201 572.09 280.691 571.857 281.415L559.717 319.257C559.47 320.025 560.043 320.809 560.848 320.809C561.567 320.809 562.204 320.345 562.423 319.66L574.619 281.701C574.856 280.959 574.303 280.201 573.523 280.201Z" fill="white"/>
<path d="M566.948 317.763H568.598" stroke="#85A4D8" stroke-width="1.55624" stroke-miterlimit="10" stroke-linecap="round" stroke-linejoin="round"/>
<path d="M571.597 317.763H573.245" stroke="#85A4D8" stroke-width="1.55624" stroke-miterlimit="10" stroke-linecap="round" stroke-linejoin="round"/>
<path d="M576.244 317.763H577.894" stroke="#85A4D8" stroke-width="1.55624" stroke-miterlimit="10" stroke-linecap="round" stroke-linejoin="round"/>
<path d="M590.786 307.233C590.78 306.813 591.12 306.467 591.54 306.467H599.038C599.421 306.467 599.742 306.754 599.788 307.135L603.027 334.998" stroke="#85A4D8" stroke-width="1.55624" stroke-miterlimit="10" stroke-linecap="round" stroke-linejoin="round"/>
<path d="M540.379 327.534H532.592C532.167 327.534 531.832 327.889 531.854 328.314L532.45 339.145C532.471 339.536 532.795 339.844 533.188 339.844H539.783C540.176 339.844 540.5 339.538 540.522 339.145L541.118 328.314C541.139 327.889 540.802 327.534 540.379 327.534Z" fill="white"/>
<path d="M531.903 329.226H541.054" stroke="#ECF1FE" stroke-width="1.55624" stroke-miterlimit="10" stroke-linecap="round" stroke-linejoin="round"/>
<path d="M541.029 329.905H542.948C543.573 329.905 544.063 330.448 543.996 331.072L543.573 335.065C543.492 335.825 543.019 336.488 542.324 336.81L540.604 337.61" stroke="white" stroke-width="1.55624" stroke-miterlimit="10" stroke-linecap="round" stroke-linejoin="round"/>
<path d="M551.351 336.757H546.276C544.57 336.757 543.187 338.139 543.187 339.844H554.438C554.438 338.991 554.093 338.22 553.534 337.661C552.976 337.102 552.204 336.757 551.351 336.757Z" fill="#BCE2F0"/>
<path d="M547.354 336.757H546.276C544.57 336.757 543.187 338.139 543.187 339.844H550.441C550.441 338.991 550.096 338.22 549.537 337.661C548.978 337.102 548.206 336.757 547.354 336.757Z" fill="white"/>
</svg>
