<svg width="677" height="398" viewBox="0 0 677 398" fill="none" xmlns="http://www.w3.org/2000/svg">
<path d="M638.057 0.0358425L35.7312 25.9802C13.8235 26.9215 -2.55484 46.4553 0.330042 68.1992L37.9358 351.571C40.3552 369.81 55.7003 383.568 74.0889 383.987L599.05 395.99C618.216 396.43 634.594 382.273 636.952 363.246L676.712 41.9223C679.545 19.0119 661.121 -0.96182 638.057 0.0358425Z" fill="#ECF1FE"/>
<path d="M606.922 115.154L604.158 113.454L603.652 114.74L513.699 131.093C511.563 131.48 509.923 133.206 509.639 135.359L496.896 232.165C496.543 234.84 498.381 237.313 501.046 237.75L587.193 251.805C589.977 252.258 592.586 250.321 592.953 247.523L609.65 120.282C609.944 118.05 608.74 116.063 606.922 115.154Z" fill="#A3BCF8"/>
<path d="M600.911 112.961L509.659 129.553C507.497 129.946 505.833 131.692 505.546 133.871L492.638 231.914C492.281 234.625 494.142 237.128 496.84 237.568L584.088 251.802C586.909 252.261 589.547 250.297 589.921 247.467L606.829 118.599C607.279 115.2 604.287 112.35 600.911 112.961Z" fill="white"/>
<path d="M505.549 133.871L500.147 174.913L515.273 173.934C517.522 173.788 519.347 172.066 519.624 169.834L524.941 126.775L509.662 129.553C507.497 129.946 505.837 131.692 505.549 133.871Z" fill="#E0E9FC"/>
<path d="M512.645 166.984L506.802 211.375" stroke="#A3BCF8" stroke-width="2" stroke-miterlimit="10" stroke-linecap="round" stroke-linejoin="round"/>
<path d="M553.835 195.462L553.538 195.19C551.385 193.236 548.099 193.243 545.953 195.2L535.042 205.159C532.836 207.173 529.444 207.116 527.308 205.027L525.457 203.218C523.456 201.264 520.329 201.072 518.107 202.765L506.809 211.372L505.483 221.449C505.265 223.106 506.432 224.627 508.088 224.842L572.334 233.223C573.991 233.438 575.505 232.274 575.723 230.618L582.666 177.7L561.241 195.607C559.076 197.419 555.918 197.353 553.835 195.462Z" fill="#ECF1FE"/>
<path d="M508.369 199.456L519.704 190.757C521.968 189.017 525.172 189.249 527.166 191.292L528.472 192.631C530.552 194.764 533.931 194.909 536.186 192.962L547.543 183.155C549.6 181.38 552.628 181.324 554.748 183.023C556.831 184.693 559.803 184.67 561.863 182.967L584.419 164.312" stroke="#3B7BED" stroke-width="4" stroke-miterlimit="10" stroke-linecap="round" stroke-linejoin="round"/>
<path d="M558.206 166.997L546.396 169.067C545.817 169.169 545.371 169.632 545.295 170.218L544.534 175.977C544.465 176.5 544.911 176.946 545.434 176.877L550.02 176.278L550.741 177.508C550.955 177.872 551.475 177.892 551.713 177.544L552.84 175.911L557.181 175.342C557.79 175.263 558.266 174.784 558.342 174.175L559.139 167.887C559.205 167.351 558.735 166.905 558.206 166.997Z" fill="#ECF1FE"/>
<path d="M515.531 145.069L533.557 142.223L534.407 135.527L516.341 138.503L515.531 145.069Z" fill="#F7CB71"/>
<path d="M514.81 150.535L541.635 146.475" stroke="#A3BCF8" stroke-width="2" stroke-miterlimit="10" stroke-linecap="round" stroke-linejoin="round"/>
<path d="M513.871 157.67L529.094 155.931" stroke="#A3BCF8" stroke-width="2" stroke-miterlimit="10" stroke-linecap="round" stroke-linejoin="round"/>
<path d="M212.586 217.65L198.025 126.775C197.784 125.261 196.514 124.12 194.98 124.044L122.812 120.341L122.535 119.164L119.612 121.026C117.797 122.084 116.686 124.196 117.079 126.461L136.772 239.013C137.152 241.185 138.802 242.775 140.786 243.222L140.809 243.225C141.053 243.278 141.301 243.311 141.553 243.328L144.439 243.731C144.439 243.731 144.39 243.364 144.313 242.842L210.388 221.258C211.905 220.758 212.841 219.231 212.586 217.65Z" fill="#A3BCF8"/>
<path d="M202.796 124.887C202.548 123.34 201.255 122.18 199.692 122.1L125.738 118.308C122.31 118.133 119.605 121.188 120.197 124.57L140.293 239.429C140.855 242.637 144.128 244.604 147.223 243.592L215.41 221.307C216.961 220.801 217.913 219.241 217.655 217.627L202.796 124.887Z" fill="white"/>
<path d="M199.688 122.1L186.165 121.406C185.99 139.439 189.429 150.641 190.662 154.066C190.903 154.741 191.541 155.193 192.259 155.197C197.728 155.23 202.998 154.972 207.561 154.615L202.796 124.887C202.548 123.34 201.252 122.18 199.688 122.1Z" fill="#E0E9FC"/>
<path d="M154.371 130.836C154.289 130.366 153.892 130.016 153.416 129.989L132.629 128.925C131.974 128.891 131.455 129.477 131.571 130.121L132.639 136.235C132.721 136.714 133.135 137.068 133.621 137.081L154.305 137.577C154.95 137.594 155.449 137.015 155.337 136.38L154.371 130.836Z" fill="#A36BEB"/>
<path d="M144.446 173.815L151.135 209.95" stroke="#ECF1FE" stroke-width="2" stroke-miterlimit="10" stroke-linecap="round" stroke-linejoin="round"/>
<path d="M156.137 164.322L165.266 215.075" stroke="#ECF1FE" stroke-width="2" stroke-miterlimit="10" stroke-linecap="round" stroke-linejoin="round"/>
<path d="M171.974 178.202L175.764 199.826" stroke="#ECF1FE" stroke-width="2" stroke-miterlimit="10" stroke-linecap="round" stroke-linejoin="round"/>
<path d="M183.163 165.757L189.792 204.531" stroke="#ECF1FE" stroke-width="2" stroke-miterlimit="10" stroke-linecap="round" stroke-linejoin="round"/>
<path d="M195.344 158.834L202.677 202.722" stroke="#ECF1FE" stroke-width="2" stroke-miterlimit="10" stroke-linecap="round" stroke-linejoin="round"/>
<path d="M146.479 184.812C147.967 184.088 149.713 183.906 151.392 184.395L158.785 186.551C159.724 186.825 160.71 186.895 161.678 186.756L170.731 185.457C172.153 185.252 173.604 185.5 174.881 186.167L180.088 188.889C184.023 190.945 188.843 188.776 189.915 184.471L195.731 161.132" stroke="#3B7BED" stroke-width="4" stroke-miterlimit="10" stroke-linecap="round" stroke-linejoin="round"/>
<path d="M197.847 173.815L187.045 180.603C186.245 181.105 185.557 181.77 185.025 182.554L177.509 193.607C176.117 195.653 173.727 196.794 171.26 196.582L162.67 195.852C162.088 195.802 161.513 195.68 160.964 195.485L151.254 192.046C150.126 191.646 148.932 191.557 147.788 191.755" stroke="#ED6B8A" stroke-width="4" stroke-miterlimit="10" stroke-linecap="round" stroke-linejoin="round"/>
<path d="M133.703 142.996H161.761" stroke="#A3BCF8" stroke-width="2" stroke-miterlimit="10" stroke-linecap="round" stroke-linejoin="round"/>
<path d="M134.874 149.798L155.552 149.371" stroke="#A3BCF8" stroke-width="2" stroke-miterlimit="10" stroke-linecap="round" stroke-linejoin="round"/>
<path d="M513.15 99.6169L513.147 99.6136C512.939 99.4185 512.694 99.2565 512.426 99.1507L509.751 97.4248C509.751 97.4248 509.55 98.2712 509.292 99.4516L466.58 109.334C464.706 109.767 463.294 111.318 463.036 113.226L456.281 163.522C456.261 163.674 456.258 163.826 456.268 163.972L454.026 164.884L457.647 165.932C457.967 166.071 458.328 166.141 458.708 166.118L502.438 163.294C504.656 163.152 506.458 161.449 506.733 159.244L513.855 101.561C513.947 100.794 513.656 100.096 513.15 99.6169Z" fill="#A3BCF8"/>
<path d="M507.89 97.0611L462.851 107.483C460.95 107.922 459.521 109.493 459.263 111.424L452.419 162.362C452.224 163.816 453.411 165.089 454.876 164.993L499.161 162.133C501.409 161.988 503.235 160.265 503.509 158.03L510.72 99.6136C510.922 98.01 509.464 96.6974 507.89 97.0611Z" fill="white"/>
<path d="M481.459 123.148L479.198 138.936L492.149 140.96C492.863 139.356 493.382 137.683 493.666 135.983C495.144 127.126 489.613 121.29 481.459 123.148Z" stroke="#A3BCF8" stroke-width="2" stroke-miterlimit="10" stroke-linecap="round" stroke-linejoin="round"/>
<path d="M483.572 151.183C487.189 148.776 490.31 145.106 492.149 140.96L479.198 138.936L483.572 151.183Z" fill="#A36BEB"/>
<path d="M481.459 123.148C473.507 124.96 466.362 133.378 465.354 141.766C464.375 149.92 469.553 155.283 477.055 153.924C479.29 153.517 481.512 152.555 483.572 151.183L479.197 138.936L481.459 123.148Z" fill="#F7CB71"/>
<path d="M465.238 114.631L480.242 111.331L480.738 107.364L465.787 110.766L465.238 114.631Z" fill="#F7CB71"/>
<path d="M464.653 119.197L485.84 114.631" stroke="#A3BCF8" stroke-width="2" stroke-miterlimit="10" stroke-linecap="round" stroke-linejoin="round"/>
<path d="M220.426 100.602C220.293 99.6831 219.45 99.0417 218.528 99.1475C207.845 100.407 196.901 98.8598 192.355 98.0663C191.247 97.8712 190.255 98.7838 190.351 99.9046C192.685 126.739 200.786 141.905 203.134 145.807C203.504 146.422 204.215 146.742 204.922 146.607C217.02 144.282 227.825 140.692 232.127 139.177C233.145 138.82 233.575 137.62 233.03 136.691C224.003 121.369 221.15 105.661 220.426 100.602Z" fill="white"/>
<path d="M197.225 105.125C197.387 106.402 197.562 107.645 197.751 108.855C200.829 109.047 203.874 109.093 206.893 109.037C206.718 107.952 206.562 106.864 206.288 105.836C202.945 105.714 199.85 105.439 197.225 105.125Z" fill="#A36BEB"/>
<path d="M198.557 113.553C198.557 113.553 206.189 113.715 216.494 112.68" stroke="#A3BCF8" stroke-width="2" stroke-miterlimit="10" stroke-linecap="round" stroke-linejoin="round"/>
<path d="M199.774 119.247C199.774 119.247 209.69 119.283 215.109 117.961" stroke="#A3BCF8" stroke-width="2" stroke-miterlimit="10" stroke-linecap="round" stroke-linejoin="round"/>
<path d="M203.739 125.476C203.739 125.476 207.991 125.248 208.629 124.93" stroke="#A3BCF8" stroke-width="2" stroke-miterlimit="10" stroke-linecap="round" stroke-linejoin="round"/>
<path d="M220.267 129.711C218.541 129.933 217.562 131.5 218.081 133.213C218.601 134.926 220.419 136.132 222.142 135.911C223.868 135.689 224.846 134.122 224.327 132.409C223.808 130.697 221.99 129.487 220.267 129.711Z" stroke="#A3BCF8" stroke-width="2" stroke-miterlimit="10" stroke-linecap="round" stroke-linejoin="round"/>
<path d="M498.259 354.9C487.625 354.9 479.012 355.314 479.012 356.001C479.012 356.689 487.629 357.387 498.259 357.387C508.892 357.387 517.508 356.673 517.508 355.988C517.508 355.301 508.892 354.9 498.259 354.9Z" fill="#A1B8DF"/>
<path d="M519.489 317.463C503.122 335.426 502.038 356.831 502.038 356.831C516.724 346.952 524.504 333.624 528.588 323.12C530.776 317.492 523.555 312.999 519.489 317.463Z" fill="#12AE67"/>
<path d="M483.641 330.09C488.452 344.902 496.149 356.435 496.149 356.435C498.285 343.523 496.731 333.68 493.884 326.38C491.332 319.837 481.472 323.411 483.641 330.09Z" fill="#12AE67"/>
<path d="M495.805 304.727C492.813 315.502 491.408 332.711 499.574 356.435C499.574 356.435 513.342 335.724 506.376 305.014C505.119 299.483 497.323 299.261 495.805 304.727Z" fill="#14C664"/>
<path d="M477.878 326.882C473.239 323.239 466.947 328.532 469.708 333.743C473.388 340.686 480.513 349.339 494.304 356.831C494.307 356.831 491.732 337.76 477.878 326.882Z" fill="#14C664"/>
<path d="M479.009 355.962L481.985 386.78C482.57 392.838 487.658 397.457 493.742 397.457H501.833C507.781 397.457 512.803 393.033 513.551 387.131L517.508 355.962C494.618 358.048 479.009 355.962 479.009 355.962Z" fill="white"/>
<path d="M499.574 356.435C499.574 356.435 500.89 311.686 500.9 304.71" stroke="#32449E" stroke-width="2" stroke-miterlimit="10" stroke-linecap="round" stroke-linejoin="round"/>
<path d="M502.038 356.831C502.038 356.831 517.25 331.981 524.045 320.825" stroke="#32449E" stroke-width="2" stroke-miterlimit="10" stroke-linecap="round" stroke-linejoin="round"/>
<path d="M496.149 356.435C496.149 356.435 493.2 339.113 488.449 326.472" stroke="#32449E" stroke-width="2" stroke-miterlimit="10" stroke-linecap="round" stroke-linejoin="round"/>
<path d="M494.308 356.831C494.308 356.831 481.449 336.973 475.022 330.572" stroke="#32449E" stroke-width="2" stroke-miterlimit="10" stroke-linecap="round" stroke-linejoin="round"/>
</svg>
